<?xml version="1.0" encoding="utf-8"?>
<!-- Generator: Adobe Illustrator 25.3.0, SVG Export Plug-In . SVG Version: 6.00 Build 0)  -->
<svg version="1.1" id="Layer_1" xmlns="http://www.w3.org/2000/svg" xmlns:xlink="http://www.w3.org/1999/xlink" x="0px" y="0px"
	 viewBox="0 0 1024 1024" style="enable-background:new 0 0 1024 1024;" xml:space="preserve">
<style type="text/css">
	.st0{fill:#6B5B95;}
	.st1{fill:#FEB236;}
</style>
<desc>Created with Fabric.js 4.6.0</desc>
<g id="LPYJAo8YNVvZkKjNeXboT" transform="matrix(1 0 0 1 512 512)">
	<path vector-effect="non-scaling-stroke" d="M0-512c282.6,0,512,229.4,512,512S282.6,512,0,512S-512,282.6-512,0S-282.6-512,0-512z
		"/>
</g>
<g id="LPYJAo8YNVvZkKjNeXboT_1_" transform="matrix(1 0 0 1 512 512)">
	<path vector-effect="non-scaling-stroke" class="st0" d="M0-452c249.5,0,452,202.5,452,452S249.5,452,0,452S-452,249.5-452,0
		S-249.5-452,0-452z"/>
</g>
<path class="st1" d="M612.5,119.1c-51.7,0-96.3,25.5-133.8,76.5c-37.5,51-63.7,113.2-78.7,186.5c-45,0-72.9,7.8-83.8,23.4
	c-6.2,8.3-10.1,16.8-11.6,25.4c-1.6,8.6-2.3,20.9-2.3,37.1c19.7-12.5,48.9-19.2,87.7-20.3c-35.7,267.4-53.5,434.3-53.5,500.6
	c0,17.9,1.5,33.3,4.4,46.4c34.8,12.4,71.3,21.1,109.1,25.6c0.2-0.2,0.3-0.4,0.5-0.6c-19.7-22.4-29.5-58-29.5-106.9
	c0-100.4,14.7-255.7,44.2-465.9c52.7-1,87.4-6.8,103.9-17.2c16.5-10.4,26.9-33.8,31-70.2c-21.7,15.1-63.3,22.6-124.9,22.6
	c11.9-73.9,28.2-126.5,48.9-158c20.7-31.5,46.5-47.2,77.6-47.2c44.5,0,72.7,25.8,84.6,77.3c23.8-16.6,35.7-38.2,35.7-64.8
	C721.8,142.5,685.4,119.1,612.5,119.1z"/>
</svg>
